{"title":"Nature.Calls.2012.HDRiP.AC3-2.0.XviD-AXED","uid":7698422,"size":1445798449,"categoryP":"video","categoryS":"movies","magnet":"?xt=urn:btih:13fea0099d6bab398e5a9fca61fe5052197c5673&amp;dn=Nature.Calls.2012.HDRiP.AC3-2.0.XviD-AXED&amp;tr=udp%3A%2F%2Ftracker.openbittorrent.com%3A80&amp;tr=udp%3A%2F%2Fopen.demonii.com%3A1337&amp;tr=udp%3A%2F%2Ftracker.coppersurfer.tk%3A6969&amp;tr=udp%3A%2F%2Fexodus.desync.com%3A6969","seeders":0,"leechers":1,"uploader":"HeroMaster","files":-1,"time":1349432553,"description":"Nature.Calls.2012.HDRiP.AC3-2.0.XviD-AXED\n &lt;a href=&quot;\nhttp://www.imdb.com/title/tt1493157/&quot; rel=&quot;nofollow&quot; target=&quot;_NEW&quot;&gt;\nhttp://www.imdb.com/title/tt1493157/&lt;/a&gt;\n\nPLOT INFO:\nPolar-opposite brothers Randy and Kirk never saw eye-to-eye, but their rivalry is taken to a new level when Randy hijacks Kirk's son's sleepover, taking the boys on a Scout Trip to remember\n\nMEDIAINFO:\nGeneral\nComplete name: Nature.Calls.2012.HDRiP.AC3-2.0.XviD-AXED.avi\nFormat: AVI\nFormat/Info: Audio Video Interleave\nFile size: 1.33 GiB\nDuration: 1h 19mn\nOverall bit rate: 2 398 Kbps\n\nVideo\nID: 0\nFormat: MPEG-4 Visual\nFormat profile: Advanced Simple@L5\nFormat settings, BVOP: 2\nFormat settings, QPel: No\nFormat settings, GMC: No warppoints\nFormat settings, Matrix: Default (H.263)\nMuxing mode: Packed bitstream\nCodec ID: XVID\nCodec ID/Hint: XviD\nDuration: 1h 19mn\nBit rate: 2 199 Kbps\nWidth: 720 pixels\nHeight: 304 pixels\nDisplay aspect ratio: 2.35:1\nFrame rate: 23.976 fps\nColor space: YUV\nChroma subsampling: 4:2:0\nBit depth: 8 bits\nScan type: Progressive\nCompression mode: Lossy\nBits/(Pixel*Frame): 0.419\nStream size: 1.22 GiB (92%)\nWriting library: XviD 64\n\nAudio\nID: 1\nFormat: AC-3\nFormat/Info: Audio Coding 3\nMode extension: CM (complete main)\nFormat settings, Endianness: Big\nCodec ID: 2000\nDuration: 1h 19mn\nBit rate mode: Constant\nBit rate: 192 Kbps\nChannel(s): 2 channels\nChannel positions: Front: L R\nSampling rate: 48.0 KHz\nBit depth: 16 bits\nCompression mode: Lossy\nStream size: 109 MiB (8%)\nAlignment: Aligned on interleaves\nInterleave, duration: 64 ms (1.53 video frames)\nInterleave, preload duration: 192 ms\nTitle: naturecalls\n\nSOURCE:\n720p wmv Digital VOD Rental\n\nNOTES:\nHere's the new comedy starring Patton Oswalt, Johnny Knoxville &amp; Rob Riggle \nthat hits limited theatres on Nov 9!\n\nAXED! - The only name to trust for VOD/HDRiP!\n\n\nPoster:\n\n\n\n\nScreenshots:\n\n\n\n\n\n\n\n\nENJOY!","torrent":{"xt":"urn:btih:13fea0099d6bab398e5a9fca61fe5052197c5673","amp;dn":"Nature.Calls.2012.HDRiP.AC3-2.0.XviD-AXED","amp;tr":["udp%3A%2F%2Ftracker.openbittorrent.com%3A80","udp%3A%2F%2Fopen.demonii.com%3A1337","udp%3A%2F%2Ftracker.coppersurfer.tk%3A6969","udp%3A%2F%2Fexodus.desync.com%3A6969"],"infoHash":"13fea0099d6bab398e5a9fca61fe5052197c5673","infoHashBuffer":{"type":"Buffer","data":[19,254,160,9,157,107,171,57,142,90,159,202,97,254,80,82,25,124,86,115]},"announce":[],"urlList":[]}}